<?xml version="1.0" encoding="UTF-8" standalone="no"?>
<!-- Created with Inkscape (http://www.inkscape.org/) -->

<svg
   width="76.308998"
   height="8.9654465"
   viewBox="0 0 76.308998 8.9654466"
   version="1.1"
   id="svg5"
   xmlns="http://www.w3.org/2000/svg"
   xmlns:svg="http://www.w3.org/2000/svg">
  <defs
     id="defs2" />
  <g
     id="layer1"
     transform="translate(-0.62624989,-0.61775494)">
    <g
       aria-label="Mullett Arena"
       id="text113"
       style="fill:#000000"
       transform="translate(1.2153362,0.26042919)">
      <path
         d="M 0.62624989,9.2075987 V 0.61775494 H 3.221953 L 4.7805468,6.4771299 6.3215624,0.61775494 H 8.9231249 V 9.2075987 H 7.3117968 V 2.4458799 L 5.6067186,9.2075987 H 3.9367968 L 2.237578,2.4458799 v 6.7617188 z"
         style="font-weight:bold;font-family:Arial;-inkscape-font-specification:'Arial Bold';fill:#000000"
         id="path718" />
      <path
         d="M 14.729766,9.2075987 V 8.2759581 q -0.339844,0.4980468 -0.896485,0.7851562 -0.550781,0.2871094 -1.166015,0.2871094 -0.626954,0 -1.125,-0.2753906 Q 11.044219,8.7974424 10.821562,8.2993956 10.598906,7.8013487 10.598906,6.9224424 v -3.9375 h 1.646485 v 2.859375 q 0,1.3125 0.08789,1.6113282 0.09375,0.2929687 0.333985,0.46875 0.240234,0.1699218 0.609375,0.1699218 0.421875,0 0.755859,-0.2285156 0.333984,-0.234375 0.457031,-0.5742187 0.123047,-0.3457032 0.123047,-1.6816407 v -2.625 h 1.646484 v 6.2226563 z"
         style="font-weight:bold;font-family:Arial;-inkscape-font-specification:'Arial Bold';fill:#000000"
         id="path720" />
      <path
         d="M 17.964141,9.2075987 V 0.61775494 h 1.646484 V 9.2075987 Z"
         style="font-weight:bold;font-family:Arial;-inkscape-font-specification:'Arial Bold';fill:#000000"
         id="path722" />
      <path
         d="M 21.298125,9.2075987 V 0.61775494 h 1.646484 V 9.2075987 Z"
         style="font-weight:bold;font-family:Arial;-inkscape-font-specification:'Arial Bold';fill:#000000"
         id="path724" />
      <path
         d="m 28.235625,7.2271299 1.640625,0.2753907 q -0.316406,0.9023437 -1.001953,1.3769531 -0.679688,0.46875 -1.705078,0.46875 -1.623047,0 -2.402344,-1.0605469 -0.615234,-0.8496094 -0.615234,-2.1445312 0,-1.546875 0.808593,-2.4199219 0.808594,-0.8789063 2.044922,-0.8789063 1.388672,0 2.191406,0.9199219 0.802735,0.9140625 0.767579,2.8066406 h -4.125 q 0.01758,0.7324219 0.398437,1.1425782 0.380859,0.4042968 0.949219,0.4042968 0.386719,0 0.65039,-0.2109375 0.263672,-0.2109375 0.398438,-0.6796875 z m 0.09375,-1.6640625 q -0.01758,-0.7148437 -0.369141,-1.0839843 -0.351562,-0.375 -0.855468,-0.375 -0.539063,0 -0.890625,0.3925781 -0.351563,0.3925781 -0.345704,1.0664062 z"
         style="font-weight:bold;font-family:Arial;-inkscape-font-specification:'Arial Bold';fill:#000000"
         id="path726" />
      <path
         d="m 34.159453,2.9849424 v 1.3125 h -1.125 v 2.5078125 q 0,0.7617188 0.0293,0.890625 0.03516,0.1230469 0.146484,0.2050782 0.117188,0.082031 0.28125,0.082031 0.228516,0 0.66211,-0.1582031 l 0.140625,1.2773437 q -0.574222,0.246094 -1.300785,0.246094 -0.445312,0 -0.802734,-0.1464844 Q 31.833281,9.0493956 31.663359,8.8150206 31.499297,8.5747862 31.434844,8.1704893 31.382109,7.8833799 31.382109,7.0103331 V 4.2974424 H 30.62625 v -1.3125 h 0.755859 V 1.7486143 L 33.034453,0.78767681 V 2.9849424 Z"
         style="font-weight:bold;font-family:Arial;-inkscape-font-specification:'Arial Bold';fill:#000000"
         id="path728" />
      <path
         d="m 38.155547,2.9849424 v 1.3125 h -1.125 v 2.5078125 q 0,0.7617188 0.0293,0.890625 0.03516,0.1230469 0.146484,0.2050782 0.117188,0.082031 0.28125,0.082031 0.228516,0 0.662109,-0.1582031 l 0.140625,1.2773437 q -0.574218,0.2460938 -1.300781,0.2460938 -0.445312,0 -0.802734,-0.1464844 Q 35.829375,9.0493956 35.659453,8.8150206 35.495391,8.5747862 35.430937,8.1704893 35.378203,7.8833799 35.378203,7.0103331 V 4.2974424 h -0.755859 v -1.3125 h 0.755859 V 1.7486143 L 37.030547,0.78767681 V 2.9849424 Z"
         style="font-weight:bold;font-family:Arial;-inkscape-font-specification:'Arial Bold';fill:#000000"
         id="path730" />
      <path
         d="m 49.944609,9.2075987 h -1.886718 l -0.75,-1.9511719 h -3.433594 l -0.708985,1.9511719 h -1.839843 l 3.345703,-8.58984376 h 1.833984 z m -3.193359,-3.3984375 -1.183594,-3.1875 -1.160156,3.1875 z"
         style="font-weight:bold;font-family:Arial;-inkscape-font-specification:'Arial Bold';fill:#000000"
         id="path732" />
      <path
         d="M 52.428984,9.2075987 H 50.7825 V 2.9849424 h 1.529297 v 0.8847657 q 0.392578,-0.6269532 0.703125,-0.8261719 0.316406,-0.1992188 0.714844,-0.1992188 0.5625,0 1.083984,0.3105469 l -0.509766,1.4355469 q -0.416015,-0.2695313 -0.773437,-0.2695313 -0.345703,0 -0.585938,0.1933594 -0.240234,0.1875 -0.380859,0.6855469 -0.134766,0.4980469 -0.134766,2.0859375 z"
         style="font-weight:bold;font-family:Arial;-inkscape-font-specification:'Arial Bold';fill:#000000"
         id="path734" />
      <path
         d="m 59.12625,7.2271299 1.640625,0.2753907 q -0.316406,0.9023437 -1.001953,1.3769531 -0.679688,0.46875 -1.705078,0.46875 -1.623047,0 -2.402344,-1.0605469 -0.615234,-0.8496094 -0.615234,-2.1445312 0,-1.546875 0.808593,-2.4199219 0.808594,-0.8789063 2.044922,-0.8789063 1.388672,0 2.191406,0.9199219 0.802735,0.9140625 0.767579,2.8066406 h -4.125 q 0.01758,0.7324219 0.398437,1.1425782 0.380859,0.4042968 0.949219,0.4042968 0.386719,0 0.65039,-0.2109375 0.263672,-0.2109375 0.398438,-0.6796875 z M 59.22,5.5630674 q -0.01758,-0.7148437 -0.369141,-1.0839843 -0.351562,-0.375 -0.855468,-0.375 -0.539063,0 -0.890625,0.3925781 -0.351563,0.3925781 -0.345704,1.0664062 z"
         style="font-weight:bold;font-family:Arial;-inkscape-font-specification:'Arial Bold';fill:#000000"
         id="path736" />
      <path
         d="M 67.856719,9.2075987 H 66.210234 V 6.0318174 q 0,-1.0078125 -0.105468,-1.3007812 -0.105469,-0.2988281 -0.345704,-0.4628906 -0.234375,-0.1640625 -0.568359,-0.1640625 -0.427734,0 -0.767578,0.234375 -0.339844,0.234375 -0.46875,0.6210937 -0.123047,0.3867188 -0.123047,1.4296875 V 9.2075987 H 62.184844 V 2.9849424 h 1.529297 v 0.9140625 q 0.814453,-1.0546875 2.050781,-1.0546875 0.544922,0 0.996094,0.1992188 0.451171,0.1933594 0.679687,0.4980469 0.234375,0.3046875 0.322266,0.6914062 0.09375,0.3867188 0.09375,1.1074219 z"
         style="font-weight:bold;font-family:Arial;-inkscape-font-specification:'Arial Bold';fill:#000000"
         id="path738" />
      <path
         d="m 70.757109,4.8833799 -1.49414,-0.2695312 q 0.251953,-0.9023438 0.867187,-1.3359375 0.615235,-0.4335938 1.828125,-0.4335938 1.101563,0 1.640625,0.2636719 0.539063,0.2578125 0.75586,0.6621094 0.222656,0.3984375 0.222656,1.4707031 l -0.01758,1.921875 q 0,0.8203125 0.07617,1.2128906 0.08203,0.3867188 0.298828,0.8320313 H 73.305933 Q 73.241483,9.0435362 73.14773,8.7212706 73.10671,8.5747862 73.08914,8.5279112 q -0.421875,0.4101562 -0.902344,0.6152344 -0.480469,0.2050781 -1.025391,0.2050781 -0.960937,0 -1.517578,-0.5214844 -0.550781,-0.5214844 -0.550781,-1.3183594 0,-0.5273437 0.251953,-0.9375 0.251953,-0.4160156 0.703125,-0.6328125 0.457031,-0.2226562 1.3125,-0.3867187 1.154297,-0.2167969 1.599609,-0.4042969 V 4.9829893 q 0,-0.4746094 -0.234375,-0.6738281 -0.234375,-0.2050781 -0.884765,-0.2050781 -0.439453,0 -0.685547,0.1757812 -0.246094,0.1699219 -0.398437,0.6035156 z m 2.203125,1.3359375 q -0.316406,0.1054688 -1.001953,0.2519532 -0.685547,0.1464843 -0.896484,0.2871093 -0.322266,0.2285157 -0.322266,0.5800782 0,0.3457031 0.257813,0.5976562 0.257812,0.2519531 0.65625,0.2519531 0.445312,0 0.849609,-0.2929687 0.298828,-0.2226563 0.392578,-0.5449219 0.06445,-0.2109375 0.06445,-0.8027344 z"
         style="font-weight:bold;font-family:Arial;-inkscape-font-specification:'Arial Bold';fill:#000000"
         id="path740" />
    </g>
  </g>
</svg>
