<?xml version="1.0" encoding="UTF-8" standalone="no"?>
<!-- Created with Inkscape (http://www.inkscape.org/) -->

<svg
   width="110.97657"
   height="10.957031"
   viewBox="0 0 110.97657 10.957031"
   version="1.1"
   id="svg5"
   inkscape:version="1.2.1 (9c6d41e410, 2022-07-14)"
   sodipodi:docname="multipurpose_arena.svg"
   xmlns:inkscape="http://www.inkscape.org/namespaces/inkscape"
   xmlns:sodipodi="http://sodipodi.sourceforge.net/DTD/sodipodi-0.dtd"
   xmlns="http://www.w3.org/2000/svg"
   xmlns:svg="http://www.w3.org/2000/svg">
  <sodipodi:namedview
     id="namedview7"
     pagecolor="#000000"
     bordercolor="#000000"
     borderopacity="0.25"
     inkscape:showpageshadow="2"
     inkscape:pageopacity="0"
     inkscape:pagecheckerboard="0"
     inkscape:deskcolor="#d1d1d1"
     inkscape:document-units="px"
     showgrid="false"
     inkscape:zoom="8.1454783"
     inkscape:cx="104.84344"
     inkscape:cy="4.9107"
     inkscape:window-width="2560"
     inkscape:window-height="1369"
     inkscape:window-x="-8"
     inkscape:window-y="293"
     inkscape:window-maximized="1"
     inkscape:current-layer="layer1" />
  <defs
     id="defs2" />
  <g
     inkscape:label="Layer 1"
     inkscape:groupmode="layer"
     id="layer1"
     transform="translate(-0.13517989,-0.00391744)"
     style="display:inline">
    <g
       aria-label="Multipurpose Arena"
       id="text113"
       style="display:inline;fill:#ffffff"
       transform="translate(-0.49107,-0.6138375)">
      <path
         d="M 0.62624989,9.2075987 V 0.61775494 H 3.221953 L 4.7805468,6.4771299 6.3215624,0.61775494 H 8.9231249 V 9.2075987 H 7.3117968 V 2.4458799 L 5.6067186,9.2075987 H 3.9367968 L 2.237578,2.4458799 v 6.7617188 z"
         style="font-weight:bold;font-family:Arial;-inkscape-font-specification:'Arial Bold'"
         id="path280" />
      <path
         d="M 14.729766,9.2075987 V 8.2759581 q -0.339844,0.4980468 -0.896485,0.7851562 -0.550781,0.2871094 -1.166015,0.2871094 -0.626954,0 -1.125,-0.2753906 Q 11.044219,8.7974424 10.821562,8.2993956 10.598906,7.8013487 10.598906,6.9224424 v -3.9375 h 1.646485 v 2.859375 q 0,1.3125 0.08789,1.6113282 0.09375,0.2929687 0.333985,0.46875 0.240234,0.1699218 0.609375,0.1699218 0.421875,0 0.755859,-0.2285156 0.333984,-0.234375 0.457031,-0.5742187 0.123047,-0.3457032 0.123047,-1.6816407 v -2.625 h 1.646484 v 6.2226563 z"
         style="font-weight:bold;font-family:Arial;-inkscape-font-specification:'Arial Bold'"
         id="path282" />
      <path
         d="M 17.964141,9.2075987 V 0.61775494 h 1.646484 V 9.2075987 Z"
         style="font-weight:bold;font-family:Arial;-inkscape-font-specification:'Arial Bold'"
         id="path284" />
      <path
         d="m 24.151641,2.9849424 v 1.3125 h -1.125 v 2.5078125 q 0,0.7617188 0.0293,0.890625 0.03516,0.1230469 0.146485,0.2050782 0.117187,0.082031 0.28125,0.082031 0.228515,0 0.662109,-0.1582031 l 0.140625,1.2773437 q -0.574219,0.2460938 -1.300781,0.2460938 -0.445313,0 -0.802734,-0.1464844 Q 21.825469,9.0493956 21.655547,8.8150206 21.491484,8.5747862 21.427031,8.1704893 21.374297,7.8833799 21.374297,7.0103331 V 4.2974424 h -0.75586 v -1.3125 h 0.75586 V 1.7486143 L 23.026641,0.78767681 V 2.9849424 Z"
         style="font-weight:bold;font-family:Arial;-inkscape-font-specification:'Arial Bold'"
         id="path286" />
      <path
         d="M 25.294219,2.1411924 V 0.61775494 h 1.646484 V 2.1411924 Z m 0,7.0664063 V 2.9849424 h 1.646484 v 6.2226563 z"
         style="font-weight:bold;font-family:Arial;-inkscape-font-specification:'Arial Bold'"
         id="path288" />
      <path
         d="m 28.581328,2.9849424 h 1.535156 v 0.9140625 q 0.298828,-0.46875 0.808594,-0.7617187 0.509766,-0.2929688 1.130859,-0.2929688 1.083985,0 1.839844,0.8496094 0.75586,0.8496094 0.75586,2.3671875 0,1.5585938 -0.761719,2.4257813 -0.761719,0.8613281 -1.845703,0.8613281 -0.515625,0 -0.9375,-0.2050781 -0.416016,-0.2050782 -0.878907,-0.703125 v 3.1347654 h -1.646484 z m 1.628906,3.0058594 q 0,1.0488281 0.416016,1.5527344 0.416016,0.4980469 1.013672,0.4980469 0.574219,0 0.955078,-0.4570313 0.380859,-0.4628906 0.380859,-1.5117187 0,-0.9785157 -0.392578,-1.453125 -0.392578,-0.4746094 -0.972656,-0.4746094 -0.603516,0 -1.001953,0.46875 -0.398438,0.4628906 -0.398438,1.3769531 z"
         style="font-weight:bold;font-family:Arial;-inkscape-font-specification:'Arial Bold'"
         id="path290" />
      <path
         d="M 40.053984,9.2075987 V 8.2759581 q -0.339843,0.4980468 -0.896484,0.7851562 -0.550781,0.2871094 -1.166016,0.2871094 -0.626953,0 -1.125,-0.2753906 Q 36.368437,8.7974424 36.145781,8.2993956 35.923125,7.8013487 35.923125,6.9224424 v -3.9375 h 1.646484 v 2.859375 q 0,1.3125 0.08789,1.6113282 0.09375,0.2929687 0.333984,0.46875 0.240235,0.1699218 0.609375,0.1699218 0.421875,0 0.75586,-0.2285156 0.333984,-0.234375 0.457031,-0.5742187 0.123047,-0.3457032 0.123047,-1.6816407 v -2.625 h 1.646484 v 6.2226563 z"
         style="font-weight:bold;font-family:Arial;-inkscape-font-specification:'Arial Bold'"
         id="path292" />
      <path
         d="M 44.864531,9.2075987 H 43.218047 V 2.9849424 h 1.529297 v 0.8847657 q 0.392578,-0.6269532 0.703125,-0.8261719 0.316406,-0.1992188 0.714843,-0.1992188 0.5625,0 1.083985,0.3105469 l -0.509766,1.4355469 q -0.416015,-0.2695313 -0.773437,-0.2695313 -0.345703,0 -0.585938,0.1933594 -0.240234,0.1875 -0.380859,0.6855469 -0.134766,0.4980469 -0.134766,2.0859375 z"
         style="font-weight:bold;font-family:Arial;-inkscape-font-specification:'Arial Bold'"
         id="path294" />
      <path
         d="m 47.911406,2.9849424 h 1.535156 v 0.9140625 q 0.298829,-0.46875 0.808594,-0.7617187 0.509766,-0.2929688 1.13086,-0.2929688 1.083984,0 1.839843,0.8496094 0.75586,0.8496094 0.75586,2.3671875 0,1.5585938 -0.761719,2.4257813 -0.761719,0.8613281 -1.845703,0.8613281 -0.515625,0 -0.9375,-0.2050781 -0.416016,-0.2050782 -0.878906,-0.703125 v 3.1347654 h -1.646485 z m 1.628906,3.0058594 q 0,1.0488281 0.416016,1.5527344 0.416016,0.4980469 1.013672,0.4980469 0.574219,0 0.955078,-0.4570313 0.380859,-0.4628906 0.380859,-1.5117187 0,-0.9785157 -0.392578,-1.453125 -0.392578,-0.4746094 -0.972656,-0.4746094 -0.603516,0 -1.001953,0.46875 -0.398438,0.4628906 -0.398438,1.3769531 z"
         style="font-weight:bold;font-family:Arial;-inkscape-font-specification:'Arial Bold'"
         id="path296" />
      <path
         d="m 54.9075,6.0083799 q 0,-0.8203125 0.404297,-1.5878906 0.404297,-0.7675781 1.142578,-1.171875 0.744141,-0.4042969 1.658203,-0.4042969 1.412109,0 2.314453,0.9199219 0.902344,0.9140625 0.902344,2.3144531 0,1.4121094 -0.914063,2.34375 -0.908203,0.9257813 -2.291015,0.9257813 -0.855469,0 -1.634766,-0.3867188 Q 55.716094,8.5747862 55.311797,7.8306456 54.9075,7.0806456 54.9075,6.0083799 Z m 1.6875,0.087891 q 0,0.9257812 0.439453,1.4179687 0.439453,0.4921875 1.083984,0.4921875 0.644532,0 1.078125,-0.4921875 0.439454,-0.4921875 0.439454,-1.4296875 0,-0.9140625 -0.439454,-1.40625 -0.433593,-0.4921875 -1.078125,-0.4921875 -0.644531,0 -1.083984,0.4921875 Q 56.595,5.1704893 56.595,6.0962709 Z"
         style="font-weight:bold;font-family:Arial;-inkscape-font-specification:'Arial Bold'"
         id="path298" />
      <path
         d="m 62.038359,7.4322081 1.652344,-0.2519532 q 0.105469,0.4804688 0.427734,0.7324219 0.322266,0.2460938 0.902344,0.2460938 0.638672,0 0.960938,-0.234375 0.216797,-0.1640625 0.216797,-0.4394532 0,-0.1875 -0.117188,-0.3105468 Q 65.958281,7.0572081 65.530547,6.9575987 63.538359,6.5181456 63.005156,6.1548643 62.266875,5.6509581 62.266875,4.7544737 q 0,-0.8085938 0.638672,-1.359375 0.638672,-0.5507813 1.980469,-0.5507813 1.277343,0 1.898437,0.4160157 0.621094,0.4160156 0.855469,1.2304687 L 66.087187,4.7779112 Q 65.987578,4.4146299 65.706328,4.2212706 65.430937,4.0279112 64.915312,4.0279112 q -0.65039,0 -0.93164,0.1816406 -0.1875,0.1289063 -0.1875,0.3339844 0,0.1757812 0.164062,0.2988281 0.222657,0.1640625 1.535157,0.4628906 1.318359,0.2988282 1.839843,0.7324219 0.515625,0.4394531 0.515625,1.2246094 0,0.8554687 -0.714843,1.4707031 -0.714844,0.6152344 -2.115235,0.6152344 -1.271484,0 -2.015625,-0.515625 -0.738281,-0.515625 -0.966797,-1.4003906 z"
         style="font-weight:bold;font-family:Arial;-inkscape-font-specification:'Arial Bold'"
         id="path300" />
      <path
         d="m 72.895781,7.2271299 1.640625,0.2753907 Q 74.22,8.4048643 73.534453,8.8794737 q -0.679687,0.46875 -1.705078,0.46875 -1.623047,0 -2.402344,-1.0605469 -0.615234,-0.8496094 -0.615234,-2.1445312 0,-1.546875 0.808594,-2.4199219 0.808593,-0.8789063 2.044921,-0.8789063 1.388672,0 2.191407,0.9199219 0.802734,0.9140625 0.767578,2.8066406 h -4.125 q 0.01758,0.7324219 0.398437,1.1425782 0.38086,0.4042968 0.949219,0.4042968 0.386719,0 0.650391,-0.2109375 0.263672,-0.2109375 0.398437,-0.6796875 z m 0.09375,-1.6640625 q -0.01758,-0.7148437 -0.36914,-1.0839843 -0.351563,-0.375 -0.855469,-0.375 -0.539063,0 -0.890625,0.3925781 -0.351563,0.3925781 -0.345703,1.0664062 z"
         style="font-weight:bold;font-family:Arial;-inkscape-font-specification:'Arial Bold'"
         id="path302" />
      <path
         d="m 86.612578,9.2075987 h -1.886719 l -0.75,-1.9511719 h -3.433593 l -0.708985,1.9511719 h -1.839844 l 3.345704,-8.58984376 h 1.833984 z m -3.193359,-3.3984375 -1.183594,-3.1875 -1.160156,3.1875 z"
         style="font-weight:bold;font-family:Arial;-inkscape-font-specification:'Arial Bold'"
         id="path304" />
      <path
         d="M 89.096953,9.2075987 H 87.450469 V 2.9849424 h 1.529297 v 0.8847657 q 0.392578,-0.6269532 0.703125,-0.8261719 0.316406,-0.1992188 0.714843,-0.1992188 0.5625,0 1.083985,0.3105469 l -0.509766,1.4355469 q -0.416016,-0.2695313 -0.773437,-0.2695313 -0.345704,0 -0.585938,0.1933594 -0.240234,0.1875 -0.380859,0.6855469 -0.134766,0.4980469 -0.134766,2.0859375 z"
         style="font-weight:bold;font-family:Arial;-inkscape-font-specification:'Arial Bold'"
         id="path306" />
      <path
         d="m 95.794219,7.2271299 1.640625,0.2753907 q -0.316407,0.9023437 -1.001953,1.3769531 -0.679688,0.46875 -1.705079,0.46875 -1.623046,0 -2.402343,-1.0605469 -0.615235,-0.8496094 -0.615235,-2.1445312 0,-1.546875 0.808594,-2.4199219 0.808594,-0.8789063 2.044922,-0.8789063 1.388672,0 2.191406,0.9199219 0.802735,0.9140625 0.767578,2.8066406 h -4.125 q 0.01758,0.7324219 0.398438,1.1425782 0.380859,0.4042968 0.949219,0.4042968 0.386718,0 0.65039,-0.2109375 0.263672,-0.2109375 0.398438,-0.6796875 z m 0.09375,-1.6640625 q -0.01758,-0.7148437 -0.369141,-1.0839843 -0.351562,-0.375 -0.855469,-0.375 -0.539062,0 -0.890625,0.3925781 -0.351562,0.3925781 -0.345703,1.0664062 z"
         style="font-weight:bold;font-family:Arial;-inkscape-font-specification:'Arial Bold'"
         id="path308" />
      <path
         d="M 104.52469,9.2075987 H 102.8782 V 6.0318174 q 0,-1.0078125 -0.10547,-1.3007812 -0.10546,-0.2988281 -0.3457,-0.4628906 -0.23437,-0.1640625 -0.56836,-0.1640625 -0.42773,0 -0.76758,0.234375 -0.33984,0.234375 -0.46875,0.6210937 -0.12304,0.3867188 -0.12304,1.4296875 V 9.2075987 H 98.852812 V 2.9849424 h 1.529298 v 0.9140625 q 0.81445,-1.0546875 2.05078,-1.0546875 0.54492,0 0.99609,0.1992188 0.45118,0.1933594 0.67969,0.4980469 0.23438,0.3046875 0.32227,0.6914062 0.0937,0.3867188 0.0937,1.1074219 z"
         style="font-weight:bold;font-family:Arial;-inkscape-font-specification:'Arial Bold'"
         id="path310" />
      <path
         d="m 107.42508,4.8833799 -1.49414,-0.2695312 q 0.25195,-0.9023438 0.86718,-1.3359375 0.61524,-0.4335938 1.82813,-0.4335938 1.10156,0 1.64062,0.2636719 0.53907,0.2578125 0.75586,0.6621094 0.22266,0.3984375 0.22266,1.4707031 l -0.0176,1.921875 q 0,0.8203125 0.0762,1.2128906 0.082,0.3867188 0.29883,0.8320313 h -1.6289 q -0.0645,-0.1640625 -0.15821,-0.4863281 -0.041,-0.1464844 -0.0586,-0.1933594 -0.42188,0.4101562 -0.90234,0.6152344 -0.48047,0.2050781 -1.0254,0.2050781 -0.96093,0 -1.51757,-0.5214844 -0.55078,-0.5214844 -0.55078,-1.3183594 0,-0.5273437 0.25195,-0.9375 0.25195,-0.4160156 0.70312,-0.6328125 0.45703,-0.2226562 1.3125,-0.3867187 1.1543,-0.2167969 1.59961,-0.4042969 V 4.9829893 q 0,-0.4746094 -0.23437,-0.6738281 -0.23438,-0.2050781 -0.88477,-0.2050781 -0.43945,0 -0.68554,0.1757812 -0.2461,0.1699219 -0.39844,0.6035156 z m 2.20312,1.3359375 q -0.3164,0.1054688 -1.00195,0.2519532 -0.68555,0.1464843 -0.89648,0.2871093 -0.32227,0.2285157 -0.32227,0.5800782 0,0.3457031 0.25781,0.5976562 0.25781,0.2519531 0.65625,0.2519531 0.44531,0 0.84961,-0.2929687 0.29883,-0.2226563 0.39258,-0.5449219 0.0645,-0.2109375 0.0645,-0.8027344 z"
         style="font-weight:bold;font-family:Arial;-inkscape-font-specification:'Arial Bold'"
         id="path312" />
    </g>
  </g>
</svg>
