<?xml version="1.0" encoding="utf-8"?>
<svg viewBox="0 0 600 50" height="50" width="600" id="svg2" version="1.1" xmlns="http://www.w3.org/2000/svg" xmlns:bx="https://boxy-svg.com">
  <defs id="defs6">
    <clipPath id="clipPath18" clipPathUnits="userSpaceOnUse">
      <path id="path16" d="M 0,792 H 612 V 0 H 0 Z"/>
    </clipPath>
    <bx:grid x="-150.055" y="-159.799" width="131.18" height="43.486"/>
  </defs>
  <g transform="matrix(1.136927, 0, 0, -1.136927, -47.377075, 474.838074)" id="g10">
    <g id="g12">
      <g clip-path="url(#clipPath18)" id="g14">
        <g transform="translate(51.2305,396.0215)" id="g20">
          <path id="path22" style="fill-opacity: 1; fill-rule: nonzero; stroke: none; fill: rgb(255, 255, 255);" d="m 0,0 c 0,-1.714 0.282,-3.307 0.847,-4.78 0.565,-1.475 1.401,-2.822 2.513,-4.042 1.22,-1.33 2.604,-2.355 4.152,-3.073 1.547,-0.719 3.151,-1.078 4.806,-1.078 3.479,0 6.399,1.237 8.754,3.713 2.361,2.477 3.541,5.564 3.541,9.26 0,3.386 -1.191,6.278 -3.566,8.67 -2.375,2.394 -5.233,3.592 -8.563,3.592 -3.479,0 -6.429,-1.192 -8.85,-3.575 C 1.214,6.301 0,3.403 0,0 m -8.167,-0.273 c 0,2.185 0.293,4.247 0.875,6.184 0.582,1.943 1.446,3.758 2.596,5.45 1.968,2.861 4.433,5.069 7.401,6.622 2.968,1.559 6.21,2.338 9.726,2.338 2.637,0 5.185,-0.51 7.631,-1.53 2.451,-1.02 4.642,-2.485 6.571,-4.397 1.985,-1.985 3.496,-4.216 4.532,-6.693 1.039,-2.476 1.559,-5.077 1.559,-7.811 0,-2.841 -0.489,-5.506 -1.463,-8.003 -0.971,-2.493 -2.406,-4.707 -4.301,-6.636 -1.912,-2.022 -4.137,-3.575 -6.678,-4.657 -2.539,-1.084 -5.194,-1.626 -7.964,-1.626 -2.965,0 -5.699,0.527 -8.193,1.584 -2.493,1.055 -4.707,2.623 -6.639,4.699 -1.855,1.965 -3.261,4.174 -4.218,6.625 -0.955,2.448 -1.435,5.065 -1.435,7.851"/>
        </g>
        <g transform="translate(123.4106,403.751)" id="g24">
          <path id="path26" style="fill-opacity: 1; fill-rule: nonzero; stroke: none; fill: rgb(255, 255, 255);" d="m 0,0 h -9.505 c -1.13,1.528 -2.471,2.677 -4.027,3.442 -1.559,0.763 -3.33,1.147 -5.315,1.147 -1.604,0 -3.123,-0.299 -4.561,-0.903 -1.437,-0.6 -2.714,-1.475 -3.823,-2.622 -1.184,-1.2 -2.099,-2.589 -2.745,-4.165 -0.647,-1.576 -0.969,-3.191 -0.969,-4.846 0,-3.643 1.169,-6.699 3.507,-9.166 2.342,-2.465 5.205,-3.7 8.591,-3.7 1.949,0 3.702,0.365 5.258,1.09 1.559,0.732 2.818,1.788 3.784,3.171 h 9.534 c -1.858,-4.06 -4.335,-7.113 -7.433,-9.152 -3.095,-2.038 -6.789,-3.058 -11.087,-3.058 -2.987,0 -5.741,0.574 -8.262,1.723 -2.522,1.146 -4.784,2.847 -6.789,5.105 -1.695,1.875 -2.977,4.01 -3.852,6.405 -0.873,2.395 -1.31,4.959 -1.31,7.69 0,2.767 0.528,5.394 1.584,7.879 1.056,2.487 2.607,4.75 4.645,6.788 1.929,1.895 4.072,3.33 6.433,4.301 2.355,0.975 4.891,1.463 7.605,1.463 4.352,0 8.071,-1.039 11.157,-3.112 C -4.493,7.401 -1.965,4.242 0,0"/>
        </g>
        <g transform="translate(146.7817,375.7822)" id="g28">
          <path id="path30" style="fill-opacity: 1; fill-rule: nonzero; stroke: none; fill: rgb(255, 255, 255);" d="M 0,0 H -21.468 V 39.77 H 0 V 32.775 H -13.767 V 23.71 H 0 V 16.825 H -13.767 V 6.992 L 0,6.992 Z"/>
        </g>
        <g transform="translate(173.9541,391.4863)" id="g32">
          <path id="path34" style="fill-opacity: 1; fill-rule: nonzero; stroke: none; fill: rgb(255, 255, 255);" d="M 0,0 V 14.648 L -10.853,0 Z m -16.828,-7.376 -6.594,-8.328 h -7.489 l 31.803,39.77 h 5.564 v -39.77 h -6.682 l 0.02,8.328 z"/>
        </g>
        <g transform="translate(439.333,391.4863)" id="g36">
          <path id="path38" style="fill-opacity: 1; fill-rule: nonzero; stroke: none; fill: rgb(255, 255, 255);" d="M 0,0 V 14.648 L -10.855,0 Z m -16.828,-7.376 -6.594,-8.328 h -7.489 l 31.804,39.77 h 5.559 v -39.77 h -6.681 l 0.02,8.328 z"/>
        </g>
        <g transform="translate(561.1016,391.4863)" id="g40">
          <path id="path42" style="fill-opacity: 1; fill-rule: nonzero; stroke: none; fill: rgb(255, 255, 255);" d="M 0,0 V 14.648 L -10.855,0 Z m -16.83,-7.376 -6.592,-8.328 h -7.488 l 31.803,39.77 h 5.56 v -39.77 h -6.682 l 0.02,8.328 z"/>
        </g>
        <g transform="translate(189.0112,375.7822)" id="g44">
          <path id="path46" style="fill-opacity: 1; fill-rule: nonzero; stroke: none; fill: rgb(255, 255, 255);" d="m 0,0 h -7.647 v 39.77 h 7.376 L 16.17,14.366 V 39.77 h 7.622 L 23.792,0 H 16.583 L 0,26.167 Z"/>
        </g>
        <g transform="translate(214.269,388.1289)" id="g48">
          <path id="path50" style="fill-opacity: 1; fill-rule: nonzero; stroke: none; fill: rgb(255, 255, 255);" d="m 0,0 7.099,0.025 v -0.573 c 0,-1.678 0.438,-3.018 1.311,-4.027 0.875,-1.011 2.038,-1.517 3.496,-1.517 1.567,0 2.806,0.469 3.716,1.406 0.909,0.939 1.367,2.207 1.367,3.811 0,2.566 -1.842,4.405 -5.518,5.518 -0.475,0.146 -0.847,0.262 -1.118,0.355 -3.099,0.963 -5.395,2.333 -6.885,4.112 -1.491,1.773 -2.24,4.016 -2.24,6.729 0,3.734 1.031,6.727 3.098,8.986 2.067,2.259 4.823,3.389 8.263,3.389 3.225,0 5.792,-1.005 7.704,-3.019 1.912,-2.013 2.976,-4.832 3.197,-8.452 h -7.049 v 0.328 c 0,1.273 -0.381,2.301 -1.147,3.083 -0.765,0.785 -1.768,1.175 -3.004,1.175 -1.277,0 -2.282,-0.401 -3.019,-1.203 -0.737,-0.796 -1.104,-1.892 -1.104,-3.275 0,-0.582 0.076,-1.096 0.231,-1.542 0.153,-0.45 0.395,-0.851 0.723,-1.218 0.746,-0.819 2.35,-1.575 4.807,-2.264 1.093,-0.294 1.931,-0.54 2.513,-0.74 2.733,-0.926 4.75,-2.259 6.049,-3.987 1.304,-1.729 1.954,-3.943 1.954,-6.637 0,-4.098 -1.138,-7.391 -3.414,-9.875 -2.276,-2.485 -5.298,-3.728 -9.068,-3.728 -3.552,0 -6.419,1.202 -8.605,3.606 C 1.174,-7.131 0.053,-3.953 0,0"/>
        </g>
        <path id="path52" style="fill-opacity: 1; fill-rule: nonzero; stroke: none; fill: rgb(255, 255, 255);" d="m 240.724,415.552 h 7.783 v -39.77 h -7.783 z"/>
        <g transform="translate(265.377,382.6113)" id="g54">
          <path id="path56" style="fill-opacity: 1; fill-rule: nonzero; stroke: none; fill: rgb(255, 255, 255);" d="m 0,0 c 4.315,0 7.495,1.056 9.534,3.165 2.038,2.115 3.058,5.419 3.058,9.915 0,4.134 -1.115,7.351 -3.346,9.644 -2.231,2.293 -5.349,3.44 -9.353,3.44 H -5.19 L -5.19,0 Z M 0.491,-6.829 H -13.03 v 39.77 H 0.274 c 3.606,0 6.492,-0.367 8.658,-1.096 2.166,-0.728 4.131,-1.949 5.9,-3.659 1.875,-1.819 3.295,-4.025 4.258,-6.609 0.966,-2.586 1.452,-5.49 1.452,-8.715 0,-3.606 -0.676,-6.834 -2.022,-9.68 C 17.169,0.33 15.215,-2.014 12.646,-3.853 11.188,-4.929 9.559,-5.69 7.754,-6.148 5.953,-6.603 3.533,-6.829 0.491,-6.829"/>
        </g>
        <g transform="translate(309.3398,375.7822)" id="g58">
          <path id="path60" style="fill-opacity: 1; fill-rule: nonzero; stroke: none; fill: rgb(255, 255, 255);" d="M 0,0 H -21.467 V 39.77 H 0 V 32.775 H -13.764 V 23.71 H 0 V 16.825 H -13.764 V 6.992 L 0,6.992 Z"/>
        </g>
        <path id="path62" style="fill-opacity: 1; fill-rule: nonzero; stroke: none; fill: rgb(255, 255, 255);" d="m 326.58,415.552 h 7.786 v -39.77 h -7.786 z"/>
        <g transform="translate(375.5703,403.751)" id="g64">
          <path id="path66" style="fill-opacity: 1; fill-rule: nonzero; stroke: none; fill: rgb(255, 255, 255);" d="m 0,0 h -9.505 c -1.127,1.528 -2.472,2.677 -4.03,3.442 -1.553,0.763 -3.326,1.147 -5.309,1.147 -1.604,0 -3.123,-0.299 -4.563,-0.903 -1.438,-0.6 -2.711,-1.475 -3.824,-2.622 -1.183,-1.2 -2.098,-2.589 -2.746,-4.165 -0.646,-1.576 -0.97,-3.191 -0.97,-4.846 0,-3.643 1.172,-6.699 3.512,-9.166 2.338,-2.465 5.203,-3.7 8.591,-3.7 1.946,0 3.699,0.365 5.255,1.09 1.557,0.732 2.818,1.788 3.784,3.171 h 9.532 c -1.859,-4.06 -4.332,-7.113 -7.427,-9.152 -3.099,-2.038 -6.795,-3.058 -11.093,-3.058 -2.985,0 -5.738,0.574 -8.26,1.723 -2.522,1.146 -4.787,2.847 -6.786,5.105 -1.694,1.875 -2.979,4.01 -3.852,6.405 -0.875,2.395 -1.31,4.959 -1.31,7.69 0,2.767 0.524,5.394 1.581,7.879 1.056,2.487 2.604,4.75 4.643,6.788 1.931,1.895 4.078,3.33 6.432,4.301 2.362,0.975 4.895,1.463 7.609,1.463 4.351,0 8.07,-1.039 11.157,-3.112 C -4.492,7.401 -1.965,4.242 0,0"/>
        </g>
        <g transform="translate(398.9414,375.7822)" id="g68">
          <path id="path70" style="fill-opacity: 1; fill-rule: nonzero; stroke: none; fill: rgb(255, 255, 255);" d="M 0,0 H -21.471 V 39.77 H 0 V 32.775 H -13.767 V 23.71 H 0 V 16.825 H -13.767 V 6.992 L 0,6.992 Z"/>
        </g>
        <g transform="translate(454.791,396.2109)" id="g72">
          <path id="path74" style="fill-opacity: 1; fill-rule: nonzero; stroke: none; fill: rgb(255, 255, 255);" d="m 0,0 h 1.723 c 3.148,0 5.541,0.57 7.167,1.708 1.632,1.139 2.446,2.799 2.446,4.985 0,2.112 -0.684,3.668 -2.051,4.671 -1.363,1.002 -3.496,1.505 -6.388,1.505 H 0 Z m 0,-20.429 h -7.783 v 39.77 h 9.449 c 3.005,0 5.241,-0.107 6.704,-0.316 1.469,-0.209 2.72,-0.55 3.756,-1.022 2.26,-1.059 3.979,-2.533 5.162,-4.428 1.187,-1.892 1.776,-4.115 1.776,-6.662 0,-3.078 -0.843,-5.687 -2.539,-7.828 -1.693,-2.138 -3.998,-3.499 -6.912,-4.083 l 9.946,-15.431 H 10.271 L 0,-1.966 Z"/>
        </g>
        <g transform="translate(497.501,375.7822)" id="g76">
          <path id="path78" style="fill-opacity: 1; fill-rule: nonzero; stroke: none; fill: rgb(255, 255, 255);" d="M 0,0 H -21.468 V 39.77 H 0 V 32.775 H -13.767 V 23.71 H 0 V 16.825 H -13.767 V 6.992 L 0,6.992 Z"/>
        </g>
        <g transform="translate(508.8535,375.7822)" id="g80">
          <path id="path82" style="fill-opacity: 1; fill-rule: nonzero; stroke: none; fill: rgb(255, 255, 255);" d="m 0,0 h -7.65 v 39.77 h 7.373 L 16.167,14.366 V 39.77 h 7.622 L 23.789,0 H 16.576 L 0,26.167 Z"/>
        </g>
      </g>
    </g>
  </g>
</svg>